<svg xmlns="http://www.w3.org/2000/svg" fill="none" viewBox="7.2 1.17 109.8 25.2" xmlns:v="https://vecta.io/nano"><path d="M52.771 12.744c1.524 0 2.77 1.258 2.77 2.796s-1.246 2.796-2.77 2.796H39.155c-1.524 0-2.77-1.258-2.77-2.796s1.246-2.796 2.77-2.796h13.616zm0-2.178H39.155c-2.725 0-4.928 2.223-4.928 4.974s2.203 4.974 4.928 4.974h13.616c2.725 0 4.928-2.223 4.928-4.974s-2.214-4.974-4.928-4.974zm61.826 1.099v7.792c0 .674.534 1.213 1.202 1.213A1.2 1.2 0 0 0 117 19.457v-7.792c0-.674-.534-1.213-1.201-1.213s-1.202.539-1.202 1.213zm-51.314 7.59v-3.02a3.17 3.17 0 0 1 1.001-2.369c.612-.584 1.446-.921 2.28-.921.69 0 1.368.213 2.002.719l6.941 5.569A5.56 5.56 0 0 0 79 20.479a5.68 5.68 0 0 0 3.927-1.583 5.61 5.61 0 0 0 1.746-4.132v-3.02c0-.674-.534-1.213-1.201-1.213s-1.201.539-1.201 1.213v3.02a3.17 3.17 0 0 1-1.001 2.369c-.612.584-1.446.921-2.28.921-.69 0-1.368-.213-2.002-.719l-6.941-5.569a5.56 5.56 0 0 0-3.493-1.246 5.68 5.68 0 0 0-3.927 1.583 5.61 5.61 0 0 0-1.747 4.132v3.02c0 .674.534 1.213 1.201 1.213s1.201-.539 1.201-1.213zm24.94-6.591l6.641 6.029a7.13 7.13 0 0 0 4.817 1.864 7.12 7.12 0 0 0 4.872-1.92l6.43-5.985c.49-.449.523-1.213.067-1.707a1.18 1.18 0 0 0-1.691-.067l-6.43 5.984a4.76 4.76 0 0 1-3.248 1.28 4.77 4.77 0 0 1-3.215-1.246l-6.641-6.029a1.19 1.19 0 0 0-1.691.09c-.445.494-.4 1.258.089 1.707z" fill="#292929"/><path d="M8.499 16.379l6.99-5.392a3 3 0 0 0-.01-4.251L8.49 1.387c-.306-.309-.813-.288-1.108.053a.76.76 0 0 0-.042.916L9.82 6.01a5.11 5.11 0 0 1-.001 5.754L7.327 15.41c-.19.277-.169.661.042.916.317.341.823.362 1.13.053zM26.05 4.601l-10.006 7.718c-1.677 1.693-1.678 4.408.015 6.085l10.004 7.656c.438.442 1.163.412 1.587-.076.317-.381.333-.915.061-1.312l-3.55-5.231c-1.692-2.471-1.692-5.765.001-8.236l3.567-5.216a1.11 1.11 0 0 0-.06-1.312c-.453-.488-1.179-.518-1.617-.076z" fill="#00bc91"/></svg>